<?xml version="1.0" encoding="utf-8"?>
<!-- Generator: Adobe Illustrator 19.2.0, SVG Export Plug-In . SVG Version: 6.00 Build 0)  -->
<svg version="1.1" id="Layer_1" xmlns="http://www.w3.org/2000/svg" xmlns:xlink="http://www.w3.org/1999/xlink" x="0px" y="0px"
	 viewBox="0 0 41.4 70.6" style="enable-background:new 0 0 41.4 70.6;" xml:space="preserve">
<style type="text/css">
	.st0{fill:#551f79;}
</style>
<path class="st0" d="M25.3,70.8h-2c-7.7,0-14-6.3-14-14V38.7c0-7.7,6.3-14,14-14h2c7.7,0,14,6.3,14,14v18.1
	C39.3,64.5,33.1,70.8,25.3,70.8z M23.3,28.7c-5.5,0-10,4.5-10,10v18.1c0,5.5,4.5,10,10,10h2c5.5,0,10-4.5,10-10V38.7
	c0-5.5-4.5-10-10-10H23.3z"/>
<rect x="21.8" y="34.4" class="st0" width="4" height="8"/>
<path class="st0" d="M21.2,24.9c-0.1-2.9-0.4-5.2-1-7.1c-2.2,1.9-5,3.3-8.7,3.6c-6.9,0.5-9.6-2.3-10.6-4c-1.2-2.1-1.1-4.6,0.2-6.8
	c1.9-2.9,5.5-4.3,9.7-3.9c1.7,0.2,3.6,0.5,5.4,1.2c-0.5-1.5-0.9-3-1.3-4.6c-0.2-0.7-0.4-1.5-0.6-2.3l3.9-1c0.2,0.8,0.4,1.6,0.6,2.3
	c0.9,3.6,1.6,6.2,2.9,8.1c0,0,0,0,0,0c2.9-3.5,5.9-7.2,11.3-7.5c6.7-0.4,8.2,3.9,8.4,6.5c0.2,1.9-0.3,3.6-1.5,5
	c-2.4,2.8-6.8,3.3-8.5,3.3c-3,0.1-5.3-0.2-7.2-0.8c0.7,2.1,1.1,4.7,1.1,7.8L21.2,24.9z M9.3,10.7c-2.5,0-4.2,1.1-4.9,2.1
	c-0.6,0.9-0.6,1.8-0.2,2.6c0.9,1.5,3.5,2.3,6.9,2c3-0.2,5.1-1.5,7-3.2c-2-2.4-4.9-3.2-7.8-3.5C10,10.7,9.6,10.7,9.3,10.7z M24.6,13
	c1.6,0.6,3.6,0.9,6.5,0.8c2.5-0.1,4.7-0.9,5.7-2c0.5-0.5,0.7-1.2,0.6-2c-0.2-1.6-0.6-3.1-4.2-2.9C29.5,7.1,27.3,9.8,24.6,13
	C24.7,13,24.7,13,24.6,13z"/>
</svg>
