<?xml version="1.0" encoding="utf-8"?>
<!-- Generator: Adobe Illustrator 19.2.0, SVG Export Plug-In . SVG Version: 6.00 Build 0)  -->
<svg version="1.1" id="Layer_1" xmlns="http://www.w3.org/2000/svg" xmlns:xlink="http://www.w3.org/1999/xlink" x="0px" y="0px"
	 viewBox="0 0 100 100" style="enable-background:new 0 0 100 100;" xml:space="preserve">
<style type="text/css">
	.st0{fill:#FFFFFF;}
</style>
<path class="st0" d="M83.9,95.7H16.1c-4.5,0-8.2-3.7-8.2-8.2V48.7H6.7c-1.6,0-2.9-1.3-2.9-2.9V30.2c0-1.6,1.3-2.9,2.9-2.9h86.5
	c1.6,0,2.9,1.3,2.9,2.9v15.6c0,1.6-1.3,2.9-2.9,2.9h-1.2v38.7C92.1,92,88.4,95.7,83.9,95.7z M52.9,89.9h31c1.3,0,2.4-1.1,2.4-2.4
	V48.7H52.9V89.9z M13.7,48.7v38.7c0,1.3,1.1,2.4,2.4,2.4h31V48.7H13.7z M89.2,42.9h1.2v-9.8H52.9v9.8H89.2z M10.8,42.9h36.3v-9.8
	H9.6v9.8H10.8z M59,26.8c-3.9,0-7.3-0.2-9-0.3c-3.8,0.3-17.7,1-24-1.5c-3.7-1.5-6.3-3.5-7.7-6.2c-1.3-2.5-1.5-5.4-0.3-8.2
	c1.9-4.7,7-8.4,15.7-5c5.1,2,12.3,9,16.3,13c4-4.1,11.2-11,16.3-13C75,2.2,80.1,6,82,10.7c1.9,4.7,0.7,10.9-8,14.4
	C70.4,26.5,64.2,26.8,59,26.8z M27.4,10.2c-1.7,0-3.3,0.7-4,2.6c-0.5,1.2-0.5,2.4,0.1,3.4c0.7,1.3,2.3,2.5,4.7,3.5
	c3.3,1.3,10.3,1.5,15.8,1.3c-4-3.9-9.2-8.6-12.5-9.9C30.3,10.6,28.8,10.2,27.4,10.2z M56,21c5.6,0.1,12.6,0,15.8-1.3
	c3-1.2,6.2-3.3,4.8-6.8c-1.4-3.5-5.2-2.9-8.2-1.7C65.2,12.4,59.9,17.1,56,21z"/>
</svg>
