<?xml version="1.0" encoding="utf-8"?>
<!-- Generator: Adobe Illustrator 19.2.0, SVG Export Plug-In . SVG Version: 6.00 Build 0)  -->
<svg version="1.1" id="Layer_1" xmlns="http://www.w3.org/2000/svg" xmlns:xlink="http://www.w3.org/1999/xlink" x="0px" y="0px"
	 viewBox="0 0 100 100" style="enable-background:new 0 0 100 100;" xml:space="preserve">
<style type="text/css">
	.st0{fill:#FFFFFF;}
</style>
<g>
	<path class="st0" d="M79,83.8H8.7c-4.1,0-7.4-3.3-7.4-7.4V35.2c0-4.1,3.3-7.4,7.4-7.4H79c4.1,0,7.4,3.3,7.4,7.4v41.3
		C86.4,80.5,83.1,83.8,79,83.8z M8.7,32.2c-1.6,0-2.9,1.3-2.9,2.9v41.3c0,1.6,1.3,2.9,2.9,2.9H79c1.6,0,2.9-1.3,2.9-2.9V35.2
		c0-1.6-1.3-2.9-2.9-2.9H8.7z"/>
	<path class="st0" d="M91.3,72.2h-7.2c-1.2,0-2.2-1-2.2-2.2c0-1.2,1-2.2,2.2-2.2h7.2c1.6,0,2.9-1.3,2.9-2.9V23.5
		c0-1.6-1.3-2.9-2.9-2.9H21c-1.6,0-2.9,1.3-2.9,2.9V30c0,1.2-1,2.2-2.2,2.2s-2.2-1-2.2-2.2v-6.5c0-4.1,3.3-7.4,7.4-7.4h70.3
		c4.1,0,7.4,3.3,7.4,7.4v41.3C98.7,68.9,95.4,72.2,91.3,72.2z"/>
	<rect x="14.9" y="51.2" class="st0" width="57.8" height="5.9"/>
</g>
</svg>
