<?xml version="1.0" encoding="utf-8"?>
<!-- Generator: Adobe Illustrator 19.2.0, SVG Export Plug-In . SVG Version: 6.00 Build 0)  -->
<svg version="1.1" id="Layer_1" xmlns="http://www.w3.org/2000/svg" xmlns:xlink="http://www.w3.org/1999/xlink" x="0px" y="0px"
	 viewBox="0 0 56.5 56.7" style="enable-background:new 0 0 56.5 56.7;" xml:space="preserve">
<style type="text/css">
	.st0{fill:#888;}
</style>
<g>
	<g>
		<path class="st0" d="M15.3,32.5h-2v-3h1.4c0-0.4,0-0.8,0-1.2c0-0.4,0-0.9,0-1.3h-1.4v-2.9h2c1.7-5.6,6.9-9.2,13.2-9.2
			c5.7,0,9,3.1,10.9,6.4l-4.8,2.3c-1.1-2.1-3.4-3.8-6.1-3.8c-3.2,0-5.8,1.7-7.2,4.3h9.6V27H20.4c-0.1,0.4-0.1,0.9-0.1,1.3
			c0,0.4,0,0.8,0.1,1.2h10.4v3h-9.6c1.3,2.7,4,4.4,7.2,4.4c2.7,0,5-1.6,6.1-3.8l4.8,2.3c-1.9,3.2-5.1,6.4-10.9,6.4
			C22.2,41.8,17,38.2,15.3,32.5z"/>
	</g>
	<path class="st0" d="M28.3,56.6C12.7,56.6,0,43.9,0,28.3C0,12.8,12.7,0.1,28.3,0.1c15.6,0,28.3,12.7,28.3,28.3
		C56.5,43.9,43.9,56.6,28.3,56.6z M28.3,4C14.8,4,3.9,14.9,3.9,28.3s10.9,24.4,24.4,24.4s24.4-10.9,24.4-24.4S41.7,4,28.3,4z"/>
</g>
</svg>
