<?xml version="1.0" encoding="utf-8"?>
<!-- Generator: Adobe Illustrator 19.2.0, SVG Export Plug-In . SVG Version: 6.00 Build 0)  -->
<svg version="1.1" id="Layer_1" xmlns="http://www.w3.org/2000/svg" xmlns:xlink="http://www.w3.org/1999/xlink" x="0px" y="0px"
	 viewBox="0 0 100 56.7" style="enable-background:new 0 0 100 56.7;" xml:space="preserve">
<style type="text/css">
	.st0{fill:#333333;}
</style>
<g>
	<path class="st0" d="M68,49H23.9l-0.1-1.6c-0.2-3.4-2.8-5.8-6.2-5.8s-6,2.4-6.2,5.8L11.3,49H0V0h68V49z M27,46h37V3H4v43h4.1
		c1-5,4.8-7.5,9.5-7.5S26.1,41,27,46z"/>
	<path class="st0" d="M100,49h-6.8l-0.1-1.6c-0.2-3.4-2.8-5.8-6.2-5.8c-3.4,0-6,2.4-6.2,5.8L80.6,49H70V18h23.4l6.6,14V49z M96.3,46
		H96V32.8L91.1,21H74v25h3.4c1-5,4.8-7.5,9.5-7.5C91.5,38.5,95.4,41,96.3,46z"/>
	<path class="st0" d="M17.6,56.7c-5,0-9.1-4.1-9.1-9.1c0-5,4.1-9.1,9.1-9.1c5,0,9.1,4.1,9.1,9.1C26.7,52.6,22.6,56.7,17.6,56.7z
		 M17.6,42c-3.1,0-5.6,2.5-5.6,5.6s2.5,5.6,5.6,5.6s5.6-2.5,5.6-5.6S20.7,42,17.6,42z"/>
	<path class="st0" d="M86.9,56.7c-5,0-9.1-4.1-9.1-9.1c0-5,4.1-9.1,9.1-9.1c5,0,9.1,4.1,9.1,9.1C96,52.6,91.9,56.7,86.9,56.7z
		 M86.9,42c-3.1,0-5.6,2.5-5.6,5.6s2.5,5.6,5.6,5.6c3.1,0,5.6-2.5,5.6-5.6S90,42,86.9,42z"/>
	<rect x="16" y="21" class="st0" width="37" height="4"/>
</g>
</svg>
