<?xml version="1.0" encoding="utf-8"?>
<!-- Generator: Adobe Illustrator 19.2.1, SVG Export Plug-In . SVG Version: 6.00 Build 0)  -->
<svg version="1.1" id="Layer_1" xmlns="http://www.w3.org/2000/svg" xmlns:xlink="http://www.w3.org/1999/xlink" x="0px" y="0px"
	 viewBox="0 0 42.6 33.1" style="enable-background:new 0 0 42.6 33.1;" xml:space="preserve">
<style type="text/css">
	.st0{fill:#FFFFFF;}
</style>
<path class="st0" d="M39.9,18.1h-38c-0.8,0-1.5-0.7-1.5-1.5s0.7-1.5,1.5-1.5h38c0.8,0,1.5,0.7,1.5,1.5S40.7,18.1,39.9,18.1z"/>
<path class="st0" d="M26.6,33c-0.4,0-0.7-0.1-1-0.4C25,32,25,31.1,25.5,30.5l13-13.8l-13-13.9C25,2.2,25,1.2,25.6,0.7
	s1.6-0.5,2.1,0.1l13.9,14.9c0.5,0.6,0.5,1.5,0,2.1L27.7,32.5C27.4,32.8,27,33,26.6,33z"/>
</svg>
