<?xml version="1.0" encoding="utf-8"?>
<!-- Generator: Adobe Illustrator 19.2.0, SVG Export Plug-In . SVG Version: 6.00 Build 0)  -->
<svg version="1.1" id="Layer_1" xmlns="http://www.w3.org/2000/svg" xmlns:xlink="http://www.w3.org/1999/xlink" x="0px" y="0px"
	 viewBox="0 0 100 100" style="enable-background:new 0 0 100 100;" xml:space="preserve">
<style type="text/css">
	.st0{fill:#333333;}
</style>
<g>
	<g>

			<rect x="34.4" y="35" transform="matrix(0.999 -4.408967e-002 4.408967e-002 0.999 -2.4158 1.6646)" class="st0" width="4.3" height="41.2"/>
		<rect x="46.9" y="35.4" class="st0" width="4.3" height="40.7"/>
		<g>

				<rect x="42" y="53.5" transform="matrix(4.394577e-002 -0.999 0.999 4.394577e-002 4.2669 115.6567)" class="st0" width="41.2" height="4.3"/>
		</g>
		<g>

				<rect x="55.7" y="53.5" transform="matrix(8.789381e-002 -0.9961 0.9961 8.789381e-002 14.2939 126.8086)" class="st0" width="41.3" height="4.3"/>
		</g>
		<g>

				<rect x="20.6" y="34.9" transform="matrix(0.9961 -8.789972e-002 8.789972e-002 0.9961 -4.7993 2.2103)" class="st0" width="4.3" height="41.3"/>
		</g>
	</g>
	<path class="st0" d="M87.4,85.7H10.9L6,24.6h87.1L87.4,85.7z M14.8,81.4h68.7l4.9-52.5H10.6L14.8,81.4z"/>
	<path class="st0" d="M66.1,28.5c-1.2,0-2.1-1-2.1-2.1c0-7.4-6-13.4-13.4-13.4s-13.4,6-13.4,13.4c0,1.2-1,2.1-2.1,2.1
		c-1.2,0-2.1-1-2.1-2.1c0-9.7,7.9-17.7,17.7-17.7s17.7,7.9,17.7,17.7C68.2,27.6,67.3,28.5,66.1,28.5z"/>
</g>
</svg>
