<?xml version="1.0" encoding="utf-8"?>
<!-- Generator: Adobe Illustrator 19.2.0, SVG Export Plug-In . SVG Version: 6.00 Build 0)  -->
<svg version="1.1" id="Layer_1" xmlns="http://www.w3.org/2000/svg" xmlns:xlink="http://www.w3.org/1999/xlink" x="0px" y="0px"
	 viewBox="0 0 100 100" style="enable-background:new 0 0 100 100;" xml:space="preserve">
<style type="text/css">
	.st0{fill:#333333;}
</style>
<g>
	<path class="st0" d="M67,71H24.2l-0.1-1.7c-0.2-3.3-2.8-5.8-6.1-5.8s-5.9,2.5-6.1,5.8L11.8,71H1V22h66V71z M27.4,67H64V26H4v41h4.7
		c1-4,4.7-7.4,9.3-7.4S26.4,63,27.4,67z"/>
	<path class="st0" d="M99,71h-6.4l-0.1-1.7c-0.2-3.3-2.8-5.8-6.1-5.8s-5.9,2.5-6.1,5.8L80.2,71H70V40h22.8L99,54V71z M95.7,67H96
		V54.7L90.6,43H73v24h4c1-4,4.7-7.4,9.3-7.4S94.8,63,95.7,67z"/>
	<path class="st0" d="M18,78.3c-5,0-9-4-9-9c0-5,4-9,9-9c5,0,9,4,9,9C27,74.3,23,78.3,18,78.3z M18,63.8c-3.1,0-5.5,2.5-5.5,5.5
		c0,3.1,2.5,5.5,5.5,5.5s5.5-2.5,5.5-5.5C23.5,66.3,21.1,63.8,18,63.8z"/>
	<path class="st0" d="M86.4,78.3c-5,0-9-4-9-9c0-5,4-9,9-9c5,0,9,4,9,9C95.4,74.3,91.3,78.3,86.4,78.3z M86.4,63.8
		c-3.1,0-5.5,2.5-5.5,5.5c0,3.1,2.5,5.5,5.5,5.5s5.5-2.5,5.5-5.5C91.9,66.3,89.4,63.8,86.4,63.8z"/>
	<rect x="16" y="43" class="st0" width="37" height="4"/>
</g>
</svg>
