<?xml version="1.0" encoding="utf-8"?>
<!-- Generator: Adobe Illustrator 19.2.0, SVG Export Plug-In . SVG Version: 6.00 Build 0)  -->
<svg version="1.1" id="Layer_1" xmlns="http://www.w3.org/2000/svg" xmlns:xlink="http://www.w3.org/1999/xlink" x="0px" y="0px"
	 viewBox="0 0 100 100" style="enable-background:new 0 0 100 100;" xml:space="preserve">
<style type="text/css">
	.st0{fill:#333333;}
</style>
<g>
	<g>
		<path class="st0" d="M30.8,54.6h-3v-4.5H30c-0.1-0.6-0.1-1.2-0.1-1.8c0-0.6,0-1.3,0.1-2h-2.2V42h3c2.6-8.4,10.4-13.8,19.9-13.8
			c8.6,0,13.6,4.7,16.3,9.6l-7.1,3.5c-1.6-3.2-5.2-5.7-9.2-5.7c-4.8,0-8.7,2.5-10.8,6.4h14.4v4.4H38.6c-0.1,0.6-0.1,1.3-0.1,2
			c0,0.6,0.1,1.2,0.1,1.8h15.7v4.5H39.9c2,4,6,6.6,10.8,6.6c4,0,7.6-2.5,9.2-5.7l7.1,3.5c-2.8,4.9-7.7,9.6-16.3,9.6
			C41.1,68.6,33.4,63.1,30.8,54.6z"/>
	</g>
	<path class="st0" d="M50.3,90.8c-23.4,0-42.5-19.1-42.5-42.5c0-23.4,19.1-42.5,42.5-42.5c23.4,0,42.5,19.1,42.5,42.5
		C92.8,71.8,73.8,90.8,50.3,90.8z M50.3,11.7c-20.2,0-36.6,16.4-36.6,36.6S30.1,85,50.3,85S87,68.5,87,48.3S70.5,11.7,50.3,11.7z"/>
</g>
</svg>
