<?xml version="1.0" encoding="utf-8"?>
<!-- Generator: Adobe Illustrator 19.2.0, SVG Export Plug-In . SVG Version: 6.00 Build 0)  -->
<svg version="1.1" id="Layer_1" xmlns="http://www.w3.org/2000/svg" xmlns:xlink="http://www.w3.org/1999/xlink" x="0px" y="0px"
	 viewBox="0 0 100 100" style="enable-background:new 0 0 100 100;" xml:space="preserve">
<style type="text/css">
	.st0{fill:#333333;}
</style>
<g>
	<path class="st0" d="M40.2,37.1h18.4h2.2h20.7v-31H60.9h-2.2H40.2h-2.1H17.4v31h20.7H40.2z M60.7,34.9V22.6h18.7v12.2H60.7z
		 M79.4,8.2v12.2H60.7V8.2H79.4z M40.5,8.2h18v26.7h-18V8.2z M38.3,34.9H19.6V8.2h18.7V34.9z"/>
	<path class="st0" d="M83,55.1H40.5v-5c0-1.2,0.7-2.2,1.9-2.2h0.7c1.2,0,2.2,1,2.2,2.2h2.2c0-2.4-1.9-4.3-4.3-4.3h-0.7
		c-2.4,0-4.1,1.9-4.1,4.3v5H16v2.2h1.4v28.1h2.2v3.6h59.1v-3.6h2.9V57.2H83V55.1z M79.4,65.2H60.7v-6.5h18.7V65.2z M40.5,58.7h18
		v24.5h-18V58.7z M60.7,67.3h18.7v6.5H60.7V67.3z M19.6,83.2V58.7h18.7v24.5H19.8H19.6z M76.5,86.8H21.8v-1.4H38h2.2h18.5h2.2h15.7
		V86.8z M78.7,83.2h-18V76h18.7v7.2H78.7z"/>
	<rect x="33.3" y="60.8" class="st0" width="2.2" height="7.2"/>
	<rect x="41.9" y="60.8" class="st0" width="2.2" height="7.2"/>
	<rect x="28.2" y="30.6" class="st0" width="7.2" height="2.2"/>
	<rect x="42.7" y="30.6" class="st0" width="7.2" height="2.2"/>
	<rect x="66.4" y="30.6" class="st0" width="7.2" height="2.2"/>
	<rect x="66.4" y="60.8" class="st0" width="7.2" height="2.2"/>
	<rect x="66.4" y="69.5" class="st0" width="7.2" height="2.2"/>
	<rect x="66.4" y="78.1" class="st0" width="7.2" height="2.2"/>
	<circle class="st0" cx="34.9" cy="52.2" r="1.6"/>
	<circle class="st0" cx="43.6" cy="52.2" r="1.6"/>
</g>
</svg>
