<?xml version="1.0" encoding="utf-8"?>
<!-- Generator: Adobe Illustrator 19.2.0, SVG Export Plug-In . SVG Version: 6.00 Build 0)  -->
<svg version="1.1" id="Layer_1" xmlns="http://www.w3.org/2000/svg" xmlns:xlink="http://www.w3.org/1999/xlink" x="0px" y="0px"
	 viewBox="0 0 100 100" style="enable-background:new 0 0 100 100;" xml:space="preserve">
<style type="text/css">
	.st0{fill:#333333;}
</style>
<path class="st0" d="M55.8,94.3h-2.6c-9.9,0-17.9-8-17.9-17.9V53.2c0-9.9,8-17.9,17.9-17.9h2.6c9.9,0,17.9,8,17.9,17.9v23.2
	C73.7,86.3,65.7,94.3,55.8,94.3z M53.2,40.4c-7.1,0-12.8,5.7-12.8,12.8v23.2c0,7.1,5.7,12.8,12.8,12.8h2.6c7.1,0,12.8-5.7,12.8-12.8
	V53.2c0-7.1-5.7-12.8-12.8-12.8H53.2z"/>
<rect x="51" y="48" class="st0" width="5" height="10"/>
<path class="st0" d="M50.5,35.5c-0.1-3.7-0.5-6.7-1.3-9c-2.8,2.4-6.3,4.3-11.1,4.6c-8.8,0.6-12.3-3-13.6-5.1
	c-1.6-2.7-1.5-5.9,0.3-8.7c2.4-3.7,7-5.6,12.4-5c2.2,0.2,4.6,0.7,6.9,1.6c-0.6-1.9-1.1-3.9-1.7-5.9c-0.2-1-0.5-1.9-0.8-3l4.9-1.3
	c0.3,1,0.5,2,0.8,3c1.2,4.6,2.1,8,3.7,10.4c0,0,0,0,0,0c3.7-4.5,7.6-9.2,14.5-9.6c8.6-0.5,10.5,5,10.8,8.3c0.2,2.4-0.4,4.7-2,6.4
	c-3.1,3.6-8.7,4.2-10.9,4.3c-3.8,0.2-6.8-0.2-9.3-1c0.8,2.7,1.4,6,1.4,10.1L50.5,35.5z M35.3,17.3c-3.3,0-5.3,1.4-6.2,2.7
	c-0.7,1.1-0.8,2.3-0.2,3.3c1.1,1.9,4.4,2.9,8.8,2.6c3.8-0.3,6.6-1.9,8.9-4.1c-2.6-3.1-6.2-4.1-10-4.5C36.1,17.3,35.7,17.3,35.3,17.3
	z M54.9,20.3c2,0.8,4.6,1.1,8.3,1c3.2-0.1,6-1.1,7.2-2.5c0.6-0.7,0.8-1.5,0.7-2.6c-0.2-2-0.8-4-5.4-3.7
	C61.1,12.8,58.3,16.2,54.9,20.3C55,20.2,54.9,20.3,54.9,20.3z"/>
</svg>
