<?xml version="1.0" encoding="utf-8"?>
<!-- Generator: Adobe Illustrator 19.2.0, SVG Export Plug-In . SVG Version: 6.00 Build 0)  -->
<svg version="1.1" id="Layer_1" xmlns="http://www.w3.org/2000/svg" xmlns:xlink="http://www.w3.org/1999/xlink" x="0px" y="0px"
	 viewBox="0 0 100 100" style="enable-background:new 0 0 100 100;" xml:space="preserve">
<style type="text/css">
	.st0{fill:#333333;}
</style>
<g>
	<path class="st0" d="M44,41.6V25.7c0-0.1,0.2-1.5-0.1-3.4c0.5-0.5,1-1.1,1.5-1.6c4.1-4.4,8.3-8.9,13-8.4c3.9,0.5,5.4,2,5.9,2.5
		l3.8-3.2c-1.1-1.3-3.7-3.7-9.1-4.3c-6.9-0.8-12.1,4.5-16.7,9.4c-0.6-1.1-1.3-2.1-2.2-3.1c-2.2-2.2-5.1-3.3-8.6-3.2
		c-4.7,0.1-8.5,3.5-9.1,8.1c-0.4,2.7,0.4,5.5,2.1,7.5c1.2,1.5,3.3,3.2,7.1,3.4c2.8,0.1,5.4-1,7.4-2.8v14.8c-9,0.2-18,8.1-18,17.8V91
		h40V59.4C61,49.8,54,41.9,44,41.6z M32,24.6c-1.6-0.1-2.8-0.6-3.6-1.6c-0.8-1-1.2-2.4-1-3.6c0.3-2.3,2-3.8,4.3-3.9
		c0.1,0,0.2,0,0.3,0c2,0,3.5,0.6,4.7,1.7c1,1,1.6,2.3,2,3.6C36.3,23.1,34.1,24.7,32,24.6z M56,86H26V59.4C26,52.3,32.6,47,39.7,47
		h4.1C50.9,47,56,52.3,56,59.4V86z"/>
	<circle class="st0" cx="42.1" cy="56.2" r="3.9"/>
	<rect x="38" y="72" class="st0" width="8" height="5"/>
	<polygon class="st0" points="82.3,82 77,82 77,29 72,29 72,82 67.5,82 63.6,91 86.3,91 	"/>
	<polygon class="st0" points="72,24.8 72,28 77,28 77,23 69.1,13.1 65.1,16.3 	"/>
</g>
</svg>
