<?xml version="1.0" encoding="utf-8"?>
<!-- Generator: Adobe Illustrator 19.2.0, SVG Export Plug-In . SVG Version: 6.00 Build 0)  -->
<svg version="1.1" id="Layer_1" xmlns="http://www.w3.org/2000/svg" xmlns:xlink="http://www.w3.org/1999/xlink" x="0px" y="0px"
	 viewBox="0 0 100 100" style="enable-background:new 0 0 100 100;" xml:space="preserve">
<style type="text/css">
	.st0{fill:#333333;}
</style>
<g>
	<path class="st0" d="M11,0v100h80V0H11z M84,94H17V6h67V94z"/>
	<circle class="st0" cx="50.2" cy="11.4" r="4.2"/>
	<path class="st0" d="M50.2,80.5c14.5,0,26.3-11.8,26.3-26.3S64.7,27.8,50.2,27.8S23.9,39.6,23.9,54.2S35.7,80.5,50.2,80.5z
		 M50.2,33.2c11.6,0,21,9.4,21,21s-9.4,21-21,21s-21-9.4-21-21S38.6,33.2,50.2,33.2z"/>
	<rect x="58" y="9" class="st0" width="20" height="5"/>
</g>
</svg>
