<?xml version="1.0" encoding="utf-8"?>
<!-- Generator: Adobe Illustrator 19.2.1, SVG Export Plug-In . SVG Version: 6.00 Build 0)  -->
<svg version="1.1" id="Layer_1" xmlns="http://www.w3.org/2000/svg" xmlns:xlink="http://www.w3.org/1999/xlink" x="0px" y="0px"
	 viewBox="0 0 267 83.3" style="enable-background:new 0 0 267 83.3;" xml:space="preserve">
<style type="text/css">
	.st0{fill:#FFFFFF;}
</style>
<g>
	<path class="st0" d="M49.8,26.3v56h44v-56H49.8z M90.8,79.3h-38v-50h38V79.3z"/>
	<circle class="st0" cx="71.7" cy="32.3" r="2.3"/>
	<path class="st0" d="M71.7,71.1c8.2,0,14.8-6.6,14.8-14.8s-6.6-14.8-14.8-14.8s-14.8,6.6-14.8,14.8S63.5,71.1,71.7,71.1z
		 M71.7,44.5c6.5,0,11.8,5.3,11.8,11.8s-5.3,11.8-11.8,11.8s-11.8-5.3-11.8-11.8S65.2,44.5,71.7,44.5z"/>
	<rect x="75.8" y="31.3" class="st0" width="12" height="3"/>
</g>
<g>
	<path class="st0" d="M142.8,26.3v56h44v-56H142.8z M183.8,29.3v8h-38v-8H183.8z M145.8,79.3v-39h12v2h12v-2h14v39H145.8z"/>
	<circle class="st0" cx="179.7" cy="32.3" r="2.3"/>
	<circle class="st0" cx="173.7" cy="32.3" r="1.3"/>
</g>
<g>
	<rect x="103.8" y="36.3" class="st0" width="3" height="12"/>
	<rect x="103.8" y="59.3" class="st0" width="3" height="12"/>
	<path class="st0" d="M98.8,2.3v49.7v3v27.3h39V54.9v-3V2.3H98.8z M134.8,79.3h-33v-24h33V79.3z M101.8,52.3v-47h33v47H101.8z"/>
</g>
<g>
	<rect x="211.8" y="75.3" class="st0" width="5" height="3"/>
	<circle class="st0" cx="204.7" cy="57.3" r="5.2"/>
	<circle class="st0" cx="224.6" cy="58.3" r="6.2"/>
	<circle class="st0" cx="204.6" cy="70.3" r="6.2"/>
	<circle class="st0" cx="225" cy="72" r="4.5"/>
	<polygon class="st0" points="232.8,54.3 232.8,79.3 194.8,79.3 194.8,49.3 225.8,49.3 225.8,46.3 191.8,46.3 191.8,82.3
		235.8,82.3 235.8,54.3 	"/>
</g>
<g>
	<path class="st0" d="M44.7,82H1.6V41.6h43.1V82z M4.1,79.5h38.1V44.1H4.1V79.5z"/>
	<path class="st0" d="M39.8,75.2H6.5V58.1h33.3V75.2z M9,72.7h28.3V60.6H9V72.7z"/>
	<circle class="st0" cx="23.5" cy="46.7" r="1.5"/>
	<rect x="2.8" y="50.3" class="st0" width="41" height="2"/>
	<rect x="12.8" y="54.3" class="st0" width="21" height="2"/>
</g>
<g>
	<path class="st0" d="M242.3,51.7c1.2,0,2.4,0.5,3.5,1c1,0.4,2,0.9,2.6,0.7c0.6-0.2,1.2-1.2,1.8-2.2c0.6-1,1.2-2.1,2.2-2.8
		c1-0.7,2.2-1,3.4-1.2c1.1-0.2,2.2-0.5,2.6-1c0.4-0.5,0.3-1.7,0.1-2.8c-0.1-1.2-0.3-2.5,0.1-3.6c0.4-1.1,1.2-2,2-2.9
		c0.8-0.8,1.5-1.7,1.5-2.4c0-0.7-0.8-1.6-1.5-2.4c-0.8-0.9-1.6-1.8-2-2.9c-0.4-1.2-0.2-2.4-0.1-3.6c0.1-1.1,0.2-2.2-0.1-2.8
		c-0.4-0.5-1.5-0.8-2.6-1c-1.2-0.3-2.4-0.5-3.4-1.2c-1-0.7-1.6-1.8-2.2-2.8c-0.6-1-1.1-2-1.8-2.2c-0.6-0.2-1.6,0.3-2.6,0.7
		c-1.1,0.5-2.3,1-3.5,1c-1.2,0-2.4-0.5-3.5-1c-1-0.4-2-0.9-2.6-0.7c-0.6,0.2-1.2,1.2-1.8,2.2c-0.6,1-1.2,2.1-2.2,2.8
		c-1,0.7-2.2,1-3.4,1.2c-1.1,0.2-2.2,0.5-2.6,1c-0.4,0.5-0.3,1.7-0.1,2.8c0.1,1.2,0.3,2.5-0.1,3.6c-0.4,1.1-1.2,2-2,2.9
		c-0.8,0.8-1.5,1.7-1.5,2.4c0,0.7,0.8,1.6,1.5,2.4c0.8,0.9,1.6,1.8,2,2.9c0.4,1.2,0.2,2.4,0.1,3.6c-0.1,1.1-0.2,2.2,0.1,2.8
		c0.4,0.5,1.5,0.8,2.6,1c1.2,0.3,2.4,0.5,3.4,1.2c1,0.7,1.6,1.8,2.2,2.8c0.6,1,1.1,2,1.8,2.2c0.6,0.2,1.6-0.3,2.6-0.7
		C239.9,52.2,241.1,51.7,242.3,51.7 M248.1,56.2c-1.2,0-2.3-0.5-3.4-1c-0.9-0.4-1.8-0.8-2.4-0.8c-0.7,0-1.6,0.4-2.4,0.8
		c-1.4,0.6-3,1.3-4.5,0.8c-1.6-0.5-2.5-2.1-3.3-3.4c-0.5-0.8-0.9-1.6-1.4-2c-0.5-0.4-1.4-0.6-2.3-0.8c-1.5-0.3-3.2-0.7-4.2-2.1
		c-1-1.3-0.8-3.1-0.6-4.6c0.1-0.9,0.2-1.9,0-2.5c-0.2-0.6-0.8-1.3-1.4-1.9c-1.1-1.2-2.2-2.5-2.2-4.2c0-1.7,1.2-3.1,2.2-4.2
		c0.6-0.7,1.2-1.4,1.4-1.9c0.2-0.6,0.1-1.6,0-2.5c-0.2-1.5-0.3-3.3,0.6-4.6c1-1.4,2.7-1.7,4.2-2.1c0.9-0.2,1.8-0.4,2.3-0.8
		c0.5-0.4,1-1.2,1.4-2c0.8-1.3,1.7-2.9,3.3-3.4c1.6-0.5,3.1,0.2,4.5,0.8c0.9,0.4,1.8,0.8,2.4,0.8s1.6-0.4,2.4-0.8
		c1.4-0.6,3-1.3,4.5-0.8c1.6,0.5,2.5,2.1,3.3,3.4c0.5,0.8,0.9,1.6,1.4,2c0.5,0.4,1.4,0.6,2.3,0.8c1.5,0.3,3.2,0.7,4.2,2.1
		c1,1.3,0.8,3.1,0.6,4.6c-0.1,0.9-0.2,1.9,0,2.5c0.2,0.6,0.8,1.3,1.4,1.9c1.1,1.2,2.2,2.5,2.2,4.2c0,1.7-1.2,3.1-2.2,4.2
		c-0.6,0.7-1.2,1.4-1.4,1.9c-0.2,0.6-0.1,1.6,0,2.5c0.2,1.5,0.3,3.3-0.6,4.6c-1,1.4-2.7,1.7-4.2,2.1c-0.9,0.2-1.8,0.4-2.3,0.8
		c-0.5,0.4-1,1.2-1.4,2c-0.8,1.3-1.7,2.9-3.3,3.4C248.9,56.1,248.5,56.2,248.1,56.2"/>
	<path class="st0" d="M251.5,30.9l-7.7,0c0,0,0.4-1.8,0.5-2.7c0.1-0.6,0.1-1.2-0.1-1.7c-0.2-0.9-0.4-1.4-0.8-2.1
		c-0.2-0.4-0.6-0.6-1-0.6H241c-0.6,0-1.1,0.5-1.1,1.1c0,1,0,2.3,0,2.4c-0.6,1.2-1.3,2.4-2,3.5c-0.3,0.5-0.7,1-1.1,1.5
		c-0.2,0.2-0.3,0.5-0.3,0.7v9.5c0,0.3,0.1,0.6,0.3,0.8c0.3,0.3,0.8,0.7,1.7,0.7c2.7,0,7.1,0,10.2,0c0.4,0,0.7-0.2,0.9-0.5l2.7-4.7
		c0.2-0.3,0.3-0.7,0.3-1.1l0-5.6C252.6,31.4,252.1,30.9,251.5,30.9"/>
	<path class="st0" d="M234.4,32.5h-1.1c-0.7,0-1.3,0.5-1.3,1.1v9.3c0,0.6,0.6,1.1,1.3,1.1h1.1c0.7,0,1.3-0.5,1.3-1.1v-9.3
		C235.7,32.9,235.2,32.5,234.4,32.5"/>
</g>
</svg>
