<?xml version="1.0" encoding="utf-8"?>
<!-- Generator: Adobe Illustrator 19.2.0, SVG Export Plug-In . SVG Version: 6.00 Build 0)  -->
<svg version="1.1" id="Layer_1" xmlns="http://www.w3.org/2000/svg" xmlns:xlink="http://www.w3.org/1999/xlink" x="0px" y="0px"
	 viewBox="0 0 612 792" style="enable-background:new 0 0 612 792;" xml:space="preserve">
<style type="text/css">
	.st0{fill:#FFFFFF;}
</style>
<polygon class="st0" points="240.9,502.4 190.1,502.8 386,249.7 436.6,249.5 "/>
<g>
	<path class="st0" d="M225.4,285.3c-16,0-29,13-29,29c0,16,13,29,29,29s29-13,29-29C254.4,298.3,241.4,285.3,225.4,285.3
		 M225.4,383.3c-38,0-69-30.9-69-68.9c0-38,30.9-69,69-69c38,0,69,30.9,69,69C294.4,352.3,263.4,383.3,225.4,383.3"/>
	<path class="st0" d="M402.3,410.9c-16,0-29,13-29,29c0,16,13,29,29,29s29-13,29-29C431.3,423.9,418.3,410.9,402.3,410.9
		 M402.3,508.8c-38,0-69-30.9-69-68.9c0-38,30.9-69,69-69c38,0,69,30.9,69,69C471.3,477.9,440.3,508.8,402.3,508.8"/>
</g>
</svg>
