<?xml version="1.0" encoding="iso-8859-1"?>
<!-- Generator: Adobe Illustrator 18.1.1, SVG Export Plug-In . SVG Version: 6.00 Build 0)  -->
<svg version="1.1" id="Capa_1" xmlns="http://www.w3.org/2000/svg" xmlns:xlink="http://www.w3.org/1999/xlink" x="0px" y="0px"
	 viewBox="0 0 270.069 270.069" style="enable-background:new 0 0 270.069 270.069;" xml:space="preserve">
<path color-rendering="auto" image-rendering="auto" shape-rendering="auto" color-interpolation="sRGB" d="M174.958,0.001
	c-2.76,0.042-4.964,2.312-4.924,5.072c0,11.833-2.292,18.848-5.479,23.893c-3.186,5.045-7.521,8.357-12.521,12.107
	S141.37,49.01,137.056,55.84c-3.772,5.973-6.315,13.786-6.895,24.457c-7.847,0.697-15.579,3.073-22.627,7.143
	c-17.01,9.821-27.5,27.991-27.5,47.633v80c0,19.642,10.49,37.81,27.5,47.631c17.01,9.821,37.99,9.821,55,0
	c17.01-9.821,27.5-27.989,27.5-47.631v-80c0-19.642-10.49-37.812-27.5-47.633c-6.969-4.023-14.604-6.394-22.359-7.121
	c0.535-9.024,2.603-14.812,5.336-19.139c3.186-5.044,7.523-8.357,12.523-12.107s10.663-7.937,14.977-14.768
	c4.314-6.83,7.023-16.066,7.023-29.232c0.04-2.761-2.166-5.032-4.928-5.072C175.057,0,175.008,0,174.958,0.001L174.958,0.001z
	 M130.035,90.366v30.688c-1.035,0.34-2.044,0.784-3.008,1.34c-4.947,2.856-8.006,8.156-8.006,13.869v17.621
	c0,5.713,3.059,11.011,8.006,13.867c4.948,2.858,11.068,2.858,16.016,0c4.948-2.856,8.006-8.155,8.006-13.867V136.26
	c0-5.713-3.058-11.011-8.006-13.867c-0.964-0.557-1.972-1-3.008-1.34V90.366c6.069,0.678,12.032,2.577,17.5,5.734
	c13.93,8.042,22.5,22.888,22.5,38.973v80c0,16.085-8.57,30.928-22.5,38.971c-13.93,8.043-31.07,8.043-45,0
	c-13.93-8.042-22.5-22.886-22.5-38.971v-80c0-16.085,8.57-30.93,22.5-38.973C118.002,92.943,123.966,91.044,130.035,90.366z
	 M135.035,130.245c1.036,0,2.073,0.27,3.006,0.809c1.868,1.078,3.008,3.049,3.008,5.207v17.623c0,2.158-1.14,4.129-3.008,5.207
	c-1.866,1.078-4.145,1.078-6.012,0c-1.868-1.078-3.006-3.05-3.006-5.207V136.26c0-2.157,1.138-4.129,3.006-5.207
	C132.962,130.514,133.998,130.245,135.035,130.245z M105.109,220.01c-2.761-0.058-5.047,2.133-5.105,4.894
	c-0.018,0.835,0.174,1.661,0.558,2.403c6.193,12.385,20.639,17.766,34.473,17.766s28.28-5.381,34.473-17.766
	c1.264-2.455,0.299-5.471-2.157-6.735s-5.471-0.299-6.735,2.157c-0.018,0.036-0.036,0.072-0.054,0.108
	c-3.807,7.615-14.361,12.236-25.527,12.236s-21.72-4.622-25.527-12.236C108.69,221.142,106.99,220.05,105.109,220.01z"/>
<g>
</g>
<g>
</g>
<g>
</g>
<g>
</g>
<g>
</g>
<g>
</g>
<g>
</g>
<g>
</g>
<g>
</g>
<g>
</g>
<g>
</g>
<g>
</g>
<g>
</g>
<g>
</g>
<g>
</g>
</svg>
